<?xml version="1.0" encoding="iso-8859-1"?>
<!-- Generator: Adobe Illustrator 19.0.0, SVG Export Plug-In . SVG Version: 6.00 Build 0)  -->
<svg version="1.1" id="Capa_1" xmlns="http://www.w3.org/2000/svg" xmlns:xlink="http://www.w3.org/1999/xlink" x="0px" y="0px"
	 viewBox="0 0 512.003 512.003" style="enable-background:new 0 0 512.003 512.003;" xml:space="preserve">
<path style="fill:#303C42;" d="M509.188,494.105L145.012,98.703c2.603-7.585,4.322-15.581,4.322-24.035
	c0-41.167-33.5-74.667-74.667-74.667S0,33.501,0,74.668s33.5,74.667,74.667,74.667c8.461,0,16.462-1.721,24.051-4.327
	l395.387,364.171c2.042,1.885,4.646,2.823,7.229,2.823c2.729,0,5.458-1.042,7.542-3.125
	C512.917,504.835,513.063,498.314,509.188,494.105z"/>
<circle style="fill:#D32E2E;" cx="74.668" cy="74.668" r="53.333"/>
<path style="opacity:0.1;fill:#010101;enable-background:new    ;" d="M99.983,28.018c4.125,7.568,6.684,16.108,6.684,25.316
	c0,29.406-23.917,53.333-53.333,53.333c-9.211,0-17.75-2.559-25.316-6.684c9.048,16.598,26.445,28.017,46.65,28.017
	c29.417,0,53.333-23.927,53.333-53.333C128,54.469,116.583,37.068,99.983,28.018z"/>
<path style="fill:#BDBDBD;" d="M118.84,134.536c5.988-4.434,11.262-9.707,15.695-15.695l183.152,198.837L118.84,134.536z"/>
<linearGradient id="SVGID_1_" gradientUnits="userSpaceOnUse" x1="-47.7847" y1="641.4379" x2="-20.0707" y2="628.5194" gradientTransform="matrix(21.3333 0 0 -21.3333 996.308 13791.6943)">
	<stop  offset="0" style="stop-color:#FFFFFF;stop-opacity:0.2"/>
	<stop  offset="1" style="stop-color:#FFFFFF;stop-opacity:0"/>
</linearGradient>
<path style="fill:url(#SVGID_1_);" d="M509.188,494.105L145.012,98.703c2.603-7.585,4.322-15.581,4.322-24.035
	c0-41.167-33.5-74.667-74.667-74.667S0,33.501,0,74.668s33.5,74.667,74.667,74.667c8.461,0,16.462-1.721,24.051-4.327
	l395.387,364.171c2.042,1.885,4.646,2.823,7.229,2.823c2.729,0,5.458-1.042,7.542-3.125
	C512.917,504.835,513.063,498.314,509.188,494.105z"/>
<g>
</g>
<g>
</g>
<g>
</g>
<g>
</g>
<g>
</g>
<g>
</g>
<g>
</g>
<g>
</g>
<g>
</g>
<g>
</g>
<g>
</g>
<g>
</g>
<g>
</g>
<g>
</g>
<g>
</g>
</svg>
